<?xml version="1.0" encoding="UTF-8"?> <svg xmlns="http://www.w3.org/2000/svg" id="Layer_1" viewBox="0 0 442.59 138.29"><defs><style>.cls-1{fill:#00a8b0;}.cls-1,.cls-2{stroke-width:0px;}.cls-2{fill:#6ac7ce;}</style></defs><path class="cls-1" d="m20.04,100.54v-50.53H0v-17.89h63.14v17.89h-20.04v50.53h-23.07Z"></path><path class="cls-1" d="m110.05,100.54h24.63l-14.36-21.04c3.83-1.96,6.86-4.61,9.08-7.94,2.54-3.81,3.81-8.36,3.81-13.63s-1.27-9.85-3.81-13.73c-2.54-3.88-6.14-6.86-10.8-8.94-4.66-2.08-10.18-3.13-16.57-3.13h-32.94v68.42h23.07v-17.2h6.28l11.6,17.2Zm-2.39-48.48c1.53,1.43,2.3,3.39,2.3,5.86s-.77,4.43-2.3,5.86c-1.53,1.43-3.89,2.15-7.09,2.15h-8.41v-16.03h8.41c3.19,0,5.55.72,7.09,2.15Z"></path><path class="cls-1" d="m172.9,102.11c-10.49,0-18.67-2.83-24.53-8.5-5.86-5.67-8.8-13.62-8.8-23.85v-37.63h23.07v36.95c0,5.21.94,8.91,2.83,11.09,1.89,2.18,4.43,3.27,7.62,3.27s5.82-1.09,7.67-3.27c1.86-2.18,2.79-5.88,2.79-11.09v-36.95h22.68v37.63c0,10.23-2.93,18.18-8.8,23.85-5.86,5.67-14.04,8.5-24.53,8.5Z"></path><path class="cls-1" d="m330.89,102.11c-5.6,0-10.77-.88-15.49-2.64-4.73-1.76-8.81-4.25-12.27-7.48-3.45-3.23-6.14-7.02-8.06-11.39-1.92-4.36-2.88-9.12-2.88-14.27s.96-9.98,2.88-14.32c1.92-4.33,4.61-8.11,8.06-11.34,3.45-3.23,7.54-5.72,12.27-7.48,4.72-1.76,9.85-2.64,15.39-2.64s10.75.88,15.44,2.64c4.69,1.76,8.76,4.25,12.22,7.48,3.45,3.23,6.14,7,8.06,11.34,1.92,4.33,2.88,9.11,2.88,14.32s-.96,9.91-2.88,14.27c-1.92,4.37-4.61,8.16-8.06,11.39-3.46,3.23-7.53,5.72-12.22,7.48s-9.81,2.64-15.35,2.64Zm-.1-18.67c2.15,0,4.15-.39,6.01-1.17,1.86-.78,3.49-1.91,4.89-3.37,1.4-1.47,2.49-3.26,3.27-5.38.78-2.12,1.17-4.51,1.17-7.18s-.39-5.07-1.17-7.18c-.78-2.12-1.87-3.91-3.27-5.38-1.4-1.47-3.03-2.59-4.89-3.37-1.86-.78-3.86-1.17-6.01-1.17s-4.15.39-6.01,1.17c-1.86.78-3.49,1.91-4.89,3.37-1.4,1.47-2.49,3.26-3.27,5.38-.78,2.12-1.17,4.51-1.17,7.18s.39,5.07,1.17,7.18c.78,2.12,1.87,3.91,3.27,5.38,1.4,1.47,3.03,2.59,4.89,3.37,1.86.78,3.86,1.17,6.01,1.17Z"></path><polygon class="cls-1" points="442.59 100.54 417.35 65.19 441.12 32.13 416.29 32.13 404.96 49.32 393.33 32.13 367.42 32.13 391.27 65.99 366.55 100.54 392.84 100.54 404.36 82.25 416.2 100.54 442.59 100.54"></polygon><path class="cls-1" d="m12.38,131.42v5.15c-1.39,1-3.58,1.72-5.4,1.72-3.95,0-6.94-2.91-6.94-6.75s3.06-6.72,7.16-6.72c1.93,0,3.97.75,5.31,1.96l-1.86,2.28c-.95-.89-2.26-1.43-3.47-1.43-2.13,0-3.77,1.7-3.77,3.91s1.65,3.94,3.8,3.94c.67,0,1.52-.25,2.3-.64v-3.42h2.86Z"></path><path class="cls-1" d="m28.69,135.33v2.81h-8.82v-13.21h3.3v10.4h5.51Z"></path><path class="cls-1" d="m48.66,131.52c0,3.85-3.01,6.77-7.03,6.77s-7.02-2.91-7.02-6.77,3.01-6.7,7.02-6.7,7.03,2.87,7.03,6.7Zm-10.67.02c0,2.23,1.69,3.94,3.67,3.94s3.6-1.72,3.6-3.94-1.6-3.91-3.6-3.91-3.67,1.68-3.67,3.91Z"></path><path class="cls-1" d="m61.73,124.93c2.91,0,4.77,1.28,4.77,3.3,0,1.4-.85,2.51-2.23,2.9,1.63.32,2.67,1.62,2.67,3.34,0,2.24-1.93,3.66-4.99,3.66h-6.37v-13.21h6.14Zm-2.86,5.28h2.67c.97,0,1.58-.53,1.58-1.38s-.61-1.34-1.58-1.34h-2.67v2.72Zm0,5.34h2.67c1.22,0,1.99-.55,1.99-1.49,0-.89-.76-1.43-1.99-1.43h-2.67v2.92Z"></path><path class="cls-1" d="m77,135.7l-.95,2.43h-3.4l5.61-13.21h3.4l5.47,13.21h-3.53l-.93-2.43h-5.68Zm2.86-7.43l-1.89,4.89h3.75l-1.86-4.89Z"></path><path class="cls-1" d="m102.35,135.33v2.81h-8.82v-13.21h3.3v10.4h5.51Z"></path><path class="cls-1" d="m121.92,127.57v3.06h5.83v2.64h-5.83v4.87h-3.3v-13.21h9.63v2.64h-6.33Z"></path><path class="cls-1" d="m143.83,135.33v2.81h-8.82v-13.21h3.3v10.4h5.51Z"></path><path class="cls-1" d="m163.8,131.52c0,3.85-3.01,6.77-7.03,6.77s-7.02-2.91-7.02-6.77,3.01-6.7,7.02-6.7,7.03,2.87,7.03,6.7Zm-10.67.02c0,2.23,1.69,3.94,3.67,3.94s3.6-1.72,3.6-3.94-1.6-3.91-3.6-3.91-3.67,1.68-3.67,3.91Z"></path><path class="cls-1" d="m183.69,131.52c0,3.85-3.01,6.77-7.03,6.77s-7.02-2.91-7.02-6.77,3.01-6.7,7.02-6.7,7.03,2.87,7.03,6.7Zm-10.67.02c0,2.23,1.69,3.94,3.67,3.94s3.6-1.72,3.6-3.94-1.6-3.91-3.6-3.91-3.67,1.68-3.67,3.91Z"></path><path class="cls-1" d="m196.52,134.42h-2.6v3.72h-3.3v-13.21h5.81c3.43,0,5.4,1.66,5.4,4.6,0,2.02-.84,3.47-2.36,4.24l2.73,4.36h-3.75l-1.93-3.72Zm-.09-2.64c1.43,0,2.26-.73,2.26-2.13s-.84-2.08-2.26-2.08h-2.51v4.21h2.51Z"></path><path class="cls-1" d="m220.57,127.04l-1.91,2.3c-.85-1.06-2.12-1.72-3.27-1.72-2.06,0-3.62,1.66-3.62,3.83s1.56,3.89,3.62,3.89c1.1,0,2.36-.6,3.27-1.55l1.93,2.08c-1.39,1.45-3.45,2.41-5.36,2.41-3.92,0-6.83-2.92-6.83-6.79s2.99-6.68,6.94-6.68c1.93,0,3.94.87,5.23,2.23Z"></path><path class="cls-1" d="m230.1,135.7l-.95,2.43h-3.4l5.61-13.21h3.4l5.48,13.21h-3.53l-.93-2.43h-5.68Zm2.86-7.43l-1.89,4.89h3.75l-1.86-4.89Z"></path><path class="cls-1" d="m252.54,134.42h-2.6v3.72h-3.3v-13.21h5.81c3.43,0,5.4,1.66,5.4,4.6,0,2.02-.84,3.47-2.36,4.24l2.73,4.36h-3.75l-1.93-3.72Zm-.09-2.64c1.43,0,2.26-.73,2.26-2.13s-.84-2.08-2.26-2.08h-2.51v4.21h2.51Z"></path><path class="cls-1" d="m268.57,127.57v2.62h6.2v2.64h-6.2v2.66h7.07v2.64h-10.38v-13.21h10.17v2.64h-6.87Z"></path><path class="cls-1" d="m302.58,126.25l-1.24,2.62c-1.37-.81-3.1-1.38-4.16-1.38-.85,0-1.43.32-1.43.96,0,2.28,6.87.98,6.87,5.75,0,2.64-2.3,4.04-5.2,4.04-2.17,0-4.4-.83-5.94-2.11l1.28-2.58c1.34,1.19,3.34,1.98,4.7,1.98,1.04,0,1.69-.4,1.69-1.15,0-2.34-6.87-.94-6.87-5.62,0-2.43,2.06-3.98,5.18-3.98,1.88,0,3.79.58,5.12,1.47Z"></path><path class="cls-1" d="m322.8,131.52c0,3.85-3.01,6.77-7.03,6.77s-7.02-2.91-7.02-6.77,3.01-6.7,7.02-6.7,7.03,2.87,7.03,6.7Zm-10.67.02c0,2.23,1.69,3.94,3.67,3.94s3.6-1.72,3.6-3.94-1.6-3.91-3.6-3.91-3.67,1.68-3.67,3.91Z"></path><path class="cls-1" d="m338.55,135.33v2.81h-8.82v-13.21h3.3v10.4h5.51Z"></path><path class="cls-1" d="m357.01,132.59c0,3.49-2.28,5.7-5.92,5.7s-5.99-2.21-5.99-5.7v-7.66h3.3v7.66c0,1.79,1.13,2.89,2.71,2.89s2.62-1.09,2.62-2.89v-7.66h3.29v7.66Z"></path><path class="cls-1" d="m370.59,127.63v10.51h-3.3v-10.51h-3.88v-2.72h11.1v2.72h-3.92Z"></path><path class="cls-1" d="m381.11,138.14v-13.21h3.3v13.21h-3.3Z"></path><path class="cls-1" d="m405.4,131.52c0,3.85-3.01,6.77-7.03,6.77s-7.02-2.91-7.02-6.77,3.01-6.7,7.02-6.7,7.03,2.87,7.03,6.7Zm-10.67.02c0,2.23,1.69,3.94,3.67,3.94s3.6-1.72,3.6-3.94-1.6-3.91-3.6-3.91-3.67,1.68-3.67,3.91Z"></path><path class="cls-1" d="m421.41,138.14l-5.98-8.13v8.13h-3.1v-13.21h2.91l5.99,8.15v-8.15h3.08v13.21h-2.91Z"></path><path class="cls-1" d="m442.22,126.25l-1.24,2.62c-1.37-.81-3.1-1.38-4.16-1.38-.85,0-1.43.32-1.43.96,0,2.28,6.87.98,6.87,5.75,0,2.64-2.3,4.04-5.2,4.04-2.17,0-4.4-.83-5.94-2.11l1.28-2.58c1.34,1.19,3.34,1.98,4.7,1.98,1.04,0,1.69-.4,1.69-1.15,0-2.34-6.87-.94-6.87-5.62,0-2.43,2.06-3.98,5.18-3.98,1.88,0,3.79.58,5.12,1.47Z"></path><path class="cls-1" d="m310.12,0c-17.33-.34-27.69,12.44-30.68,19.23l-36.13,81.31h22.39L310.54.02c-.14,0-.27-.01-.42-.02Z"></path><polygon class="cls-2" points="244.02 48.94 235.48 32.12 210.61 32.12 231.78 76.49 244.02 48.94"></polygon><path class="cls-1" d="m427.22,15.51h-3.69v7.63h-3.03v-7.63h-3.69v-2.45h10.42v2.45Z"></path><path class="cls-1" d="m440.72,23.14h-3.04v-5.84l-2.74,3.38h-.24l-2.75-3.38v5.84h-2.95v-10.08h2.76l3.1,3.78,3.11-3.78h2.76v10.08Z"></path></svg>